<svg width="1440" height="900" viewBox="0 0 1440 900" fill="none" xmlns="http://www.w3.org/2000/svg">
<g clip-path="url(#clip0_352_9)">
<path d="M432.465 190.806C432.314 189.598 432.193 189.477 430.954 189.296C432.163 189.144 432.284 189.024 432.465 187.785C432.616 188.994 432.737 189.114 433.976 189.296C432.767 189.447 432.646 189.598 432.465 190.806Z" fill="white" fill-opacity="0.1"/>
<path d="M445.782 24.33C445.631 23.1218 445.51 23.0011 444.271 22.8198C445.48 22.6686 445.6 22.5479 445.782 21.3096C445.933 22.5177 446.054 22.6385 447.293 22.8198C446.084 22.9707 445.963 23.1218 445.782 24.33Z" fill="white" fill-opacity="0.1"/>
<path d="M531.229 129.383C531.078 128.174 530.957 128.054 529.718 127.872C530.927 127.721 531.048 127.6 531.229 126.362C531.38 127.57 531.501 127.691 532.74 127.872C531.531 128.023 531.411 128.174 531.229 129.383Z" fill="white" fill-opacity="0.1"/>
<path d="M622.951 38.703C622.951 39.3201 622.45 39.8205 621.832 39.8205C621.215 39.8205 620.714 39.3201 620.714 38.703C620.714 38.0857 621.215 37.5854 621.832 37.5854C622.45 37.5854 622.951 38.0857 622.951 38.703Z" fill="white" fill-opacity="0.1"/>
<path d="M468.895 89.2196C468.895 89.8367 468.395 90.3371 467.777 90.3371C467.16 90.3371 466.659 89.8367 466.659 89.2196C466.659 88.6023 467.16 88.1021 467.777 88.1021C468.395 88.1021 468.895 88.6023 468.895 89.2196Z" fill="white" fill-opacity="0.1"/>
<path d="M474.25 192.583C474.25 193.2 473.749 193.7 473.132 193.7C472.514 193.7 472.014 193.2 472.014 192.583C472.014 191.966 472.514 191.465 473.132 191.465C473.749 191.465 474.25 191.966 474.25 192.583Z" fill="white" fill-opacity="0.1"/>
<path d="M489.724 132.287C489.724 132.904 489.223 133.405 488.605 133.405C487.988 133.405 487.487 132.904 487.487 132.287C487.487 131.67 487.988 131.17 488.605 131.17C489.223 131.17 489.724 131.67 489.724 132.287Z" fill="white" fill-opacity="0.1"/>
<path d="M690.332 22.1236C689.553 22.9019 688.29 22.9019 687.511 22.1236C686.733 21.345 686.733 20.0828 687.511 19.3044C688.29 18.5258 689.553 18.5258 690.332 19.3044C691.111 20.0828 691.111 21.345 690.332 22.1236Z" fill="white" fill-opacity="0.15"/>
<path d="M571.904 89.3797C571.904 89.9968 571.403 90.4973 570.786 90.4973C570.168 90.4973 569.668 89.9968 569.668 89.3797C569.668 88.7624 570.168 88.2622 570.786 88.2622C571.403 88.2622 571.904 88.7624 571.904 89.3797Z" fill="white" fill-opacity="0.15"/>
<path d="M509.405 15.0825C509.254 13.8743 509.133 13.7535 507.894 13.5722C509.103 13.4211 509.224 13.3003 509.405 12.062C509.556 13.2702 509.677 13.391 510.916 13.5722C509.707 13.7231 509.586 13.8743 509.405 15.0825Z" fill="white" fill-opacity="0.1"/>
<path d="M538.196 93.1308C538.044 91.9226 537.924 91.8018 536.685 91.6206C537.893 91.4694 538.014 91.3487 538.196 90.1104C538.347 91.3185 538.468 91.4393 539.706 91.6206C538.498 91.7715 538.377 91.9226 538.196 93.1308Z" fill="white" fill-opacity="0.1"/>
<path d="M859.223 395.39C859.374 396.598 859.495 396.719 860.734 396.9C859.525 397.051 859.404 397.172 859.223 398.41C859.072 397.202 858.951 397.081 857.712 396.9C858.921 396.749 859.042 396.598 859.223 395.39Z" fill="white" fill-opacity="0.1"/>
<path d="M942.821 151.605C942.972 152.813 943.093 152.934 944.332 153.115C943.123 153.266 943.002 153.387 942.821 154.625C942.67 153.417 942.549 153.296 941.31 153.115C942.519 152.964 942.64 152.813 942.821 151.605Z" fill="white" fill-opacity="0.1"/>
<path d="M929.504 318.08C929.656 319.288 929.776 319.409 931.015 319.59C929.807 319.742 929.686 319.862 929.504 321.101C929.353 319.892 929.232 319.772 927.993 319.59C929.202 319.439 929.323 319.288 929.504 318.08Z" fill="white" fill-opacity="0.1"/>
<path d="M844.057 213.028C844.208 214.236 844.329 214.357 845.568 214.538C844.359 214.689 844.238 214.81 844.057 216.048C843.906 214.84 843.785 214.719 842.546 214.538C843.755 214.387 843.876 214.236 844.057 213.028Z" fill="white" fill-opacity="0.1"/>
<path d="M968.05 397.293C968.05 396.676 968.55 396.175 969.168 396.175C969.786 396.175 970.286 396.676 970.286 397.293C970.286 397.91 969.786 398.41 969.168 398.41C968.55 398.41 968.05 397.91 968.05 397.293Z" fill="white" fill-opacity="0.1"/>
<path d="M752.335 303.707C752.335 303.09 752.836 302.59 753.454 302.59C754.071 302.59 754.572 303.09 754.572 303.707C754.572 304.325 754.071 304.825 753.454 304.825C752.836 304.825 752.335 304.325 752.335 303.707Z" fill="white" fill-opacity="0.1"/>
<path d="M906.391 253.191C906.391 252.573 906.892 252.073 907.509 252.073C908.126 252.073 908.627 252.573 908.627 253.191C908.627 253.808 908.126 254.308 907.509 254.308C906.892 254.308 906.391 253.808 906.391 253.191Z" fill="white" fill-opacity="0.1"/>
<path d="M901.036 149.828C901.036 149.21 901.537 148.71 902.154 148.71C902.772 148.71 903.272 149.21 903.272 149.828C903.272 150.445 902.772 150.945 902.154 150.945C901.537 150.945 901.036 150.445 901.036 149.828Z" fill="white" fill-opacity="0.1"/>
<path d="M885.563 210.123C885.563 209.506 886.063 209.006 886.681 209.006C887.298 209.006 887.799 209.506 887.799 210.123C887.799 210.741 887.298 211.241 886.681 211.241C886.063 211.241 885.563 210.741 885.563 210.123Z" fill="white" fill-opacity="0.1"/>
<path d="M678.898 385.346C679.906 384.9 681.084 385.355 681.53 386.362C681.976 387.369 681.52 388.546 680.513 388.992C679.506 389.437 678.328 388.983 677.882 387.976C677.436 386.969 677.891 385.792 678.898 385.346Z" fill="white" fill-opacity="0.15"/>
<path d="M833.071 368.674C833.071 367.573 833.964 366.681 835.065 366.681C836.167 366.681 837.06 367.573 837.06 368.674C837.06 369.775 836.167 370.668 835.065 370.668C833.964 370.668 833.071 369.775 833.071 368.674Z" fill="white" fill-opacity="0.15"/>
<path d="M684.954 320.287C685.733 319.508 686.996 319.508 687.775 320.287C688.554 321.065 688.554 322.328 687.775 323.106C686.996 323.885 685.733 323.885 684.954 323.106C684.175 322.328 684.175 321.065 684.954 320.287Z" fill="white" fill-opacity="0.15"/>
<path d="M710.167 369.55C710.167 368.933 710.667 368.433 711.285 368.433C711.902 368.433 712.403 368.933 712.403 369.55C712.403 370.168 711.902 370.668 711.285 370.668C710.667 370.668 710.167 370.168 710.167 369.55Z" fill="white" fill-opacity="0.15"/>
<path d="M803.382 253.031C803.382 252.414 803.883 251.913 804.5 251.913C805.118 251.913 805.618 252.414 805.618 253.031C805.618 253.648 805.118 254.148 804.5 254.148C803.883 254.148 803.382 253.648 803.382 253.031Z" fill="white" fill-opacity="0.15"/>
<path d="M865.881 327.328C866.032 328.536 866.153 328.657 867.392 328.838C866.183 328.989 866.062 329.11 865.881 330.348C865.73 329.14 865.609 329.019 864.37 328.838C865.579 328.687 865.7 328.536 865.881 327.328Z" fill="white" fill-opacity="0.1"/>
<path d="M760.521 375.417C760.672 376.625 760.793 376.746 762.032 376.927C760.823 377.078 760.702 377.199 760.521 378.437C760.37 377.229 760.249 377.108 759.01 376.927C760.218 376.776 760.339 376.625 760.521 375.417Z" fill="white" fill-opacity="0.1"/>
<path d="M837.091 249.28C837.242 250.488 837.363 250.609 838.602 250.79C837.393 250.941 837.272 251.062 837.091 252.3C836.94 251.092 836.819 250.971 835.58 250.79C836.788 250.639 836.909 250.488 837.091 249.28Z" fill="white" fill-opacity="0.1"/>
<path d="M904.783 364.319C904.934 365.528 905.055 365.648 906.294 365.83C905.085 365.981 904.964 366.102 904.783 367.34C904.632 366.132 904.511 366.011 903.272 365.83C904.481 365.679 904.602 365.528 904.783 364.319Z" fill="white" fill-opacity="0.1"/>
<path d="M996.659 598.202C996.81 596.994 996.931 596.873 998.17 596.692C996.961 596.54 996.84 596.42 996.659 595.181C996.508 596.39 996.387 596.51 995.148 596.692C996.357 596.843 996.477 596.994 996.659 598.202Z" fill="white" fill-opacity="0.1"/>
<path d="M1080.3 740.362C1080.45 739.154 1080.57 739.033 1081.81 738.852C1080.6 738.701 1080.48 738.58 1080.3 737.342C1080.15 738.55 1080.03 738.67 1078.79 738.852C1080 739.003 1080.12 739.154 1080.3 740.362Z" fill="white" fill-opacity="0.1"/>
<path d="M984.063 732.025C984.214 730.816 984.335 730.696 985.574 730.514C984.365 730.363 984.244 730.242 984.063 729.004C983.912 730.212 983.791 730.333 982.552 730.514C983.761 730.665 983.882 730.816 984.063 732.025Z" fill="white" fill-opacity="0.1"/>
<path d="M819.231 640.139C819.382 638.931 819.503 638.81 820.742 638.629C819.533 638.478 819.413 638.357 819.231 637.119C819.08 638.327 818.959 638.448 817.72 638.629C818.929 638.78 819.05 638.931 819.231 640.139Z" fill="white" fill-opacity="0.1"/>
<path d="M907.944 544.196C908.095 542.988 908.216 542.867 909.455 542.686C908.246 542.534 908.125 542.414 907.944 541.175C907.793 542.383 907.672 542.504 906.433 542.686C907.642 542.836 907.763 542.988 907.944 544.196Z" fill="white" fill-opacity="0.1"/>
<path d="M927.153 590.203C927.153 590.82 927.653 591.32 928.271 591.32C928.888 591.32 929.389 590.82 929.389 590.203C929.389 589.586 928.888 589.085 928.271 589.085C927.653 589.085 927.153 589.586 927.153 590.203Z" fill="white" fill-opacity="0.1"/>
<path d="M761.061 698.068C761.061 698.685 761.561 699.185 762.179 699.185C762.797 699.185 763.297 698.685 763.297 698.068C763.297 697.45 762.797 696.95 762.179 696.95C761.561 696.95 761.061 697.45 761.061 698.068Z" fill="white" fill-opacity="0.1"/>
<path d="M1017.77 622.607C1017.77 623.224 1018.27 623.725 1018.89 623.725C1019.51 623.725 1020.01 623.224 1020.01 622.607C1020.01 621.99 1019.51 621.49 1018.89 621.49C1018.27 621.49 1017.77 621.99 1017.77 622.607Z" fill="white" fill-opacity="0.1"/>
<path d="M806.595 540.118C806.595 540.735 807.095 541.235 807.713 541.235C808.33 541.235 808.831 540.735 808.831 540.118C808.831 539.5 808.33 539 807.713 539C807.095 539 806.595 539.5 806.595 540.118Z" fill="white" fill-opacity="0.1"/>
<path d="M1044.41 665.886C1044.41 666.503 1044.91 667.003 1045.53 667.003C1046.14 667.003 1046.64 666.503 1046.64 665.886C1046.64 665.269 1046.14 664.768 1045.53 664.768C1044.91 664.768 1044.41 665.269 1044.41 665.886Z" fill="white" fill-opacity="0.1"/>
<path d="M1009.62 755.133C1009.62 755.751 1010.12 756.251 1010.74 756.251C1011.35 756.251 1011.85 755.751 1011.85 755.133C1011.85 754.516 1011.35 754.016 1010.74 754.016C1010.12 754.016 1009.62 754.516 1009.62 755.133Z" fill="white" fill-opacity="0.1"/>
<path d="M989.599 646.651C989.599 647.268 990.1 647.769 990.717 647.769C991.335 647.769 991.835 647.268 991.835 646.651C991.835 646.034 991.335 645.534 990.717 645.534C990.1 645.534 989.599 646.034 989.599 646.651Z" fill="white" fill-opacity="0.1"/>
<path d="M1005.27 690.136C1006.28 690.582 1007.46 690.127 1007.91 689.12C1008.35 688.114 1007.9 686.936 1006.89 686.49C1005.88 686.045 1004.7 686.5 1004.26 687.506C1003.81 688.513 1004.27 689.69 1005.27 690.136Z" fill="white" fill-opacity="0.15"/>
<path d="M858.571 684.59C858.571 685.691 859.464 686.584 860.565 686.584C861.667 686.584 862.56 685.691 862.56 684.59C862.56 683.489 861.667 682.597 860.565 682.597C859.464 682.597 858.571 683.489 858.571 684.59Z" fill="white" fill-opacity="0.15"/>
<path d="M924.711 651.624C925.49 652.402 926.752 652.402 927.531 651.624C928.31 650.845 928.31 649.583 927.531 648.805C926.752 648.026 925.49 648.026 924.711 648.805C923.932 649.583 923.932 650.845 924.711 651.624Z" fill="white" fill-opacity="0.15"/>
<path d="M996.627 548.997C996.627 549.614 997.128 550.114 997.745 550.114C998.363 550.114 998.864 549.614 998.864 548.997C998.864 548.38 998.363 547.879 997.745 547.879C997.128 547.879 996.627 548.38 996.627 548.997Z" fill="white" fill-opacity="0.15"/>
<path d="M874.251 580.068C874.251 580.685 874.752 581.186 875.369 581.186C875.987 581.186 876.487 580.685 876.487 580.068C876.487 579.451 875.987 578.95 875.369 578.95C874.752 578.95 874.251 579.451 874.251 580.068Z" fill="white" fill-opacity="0.15"/>
<path d="M862.674 754.06C862.825 752.852 862.946 752.732 864.185 752.55C862.976 752.399 862.855 752.278 862.674 751.04C862.523 752.248 862.402 752.369 861.163 752.55C862.372 752.701 862.492 752.852 862.674 754.06Z" fill="white" fill-opacity="0.1"/>
<path d="M775.149 611.148C775.3 609.94 775.421 609.819 776.66 609.638C775.451 609.487 775.33 609.366 775.149 608.127C774.998 609.336 774.877 609.456 773.638 609.638C774.847 609.789 774.967 609.94 775.149 611.148Z" fill="white" fill-opacity="0.1"/>
<path d="M719.51 663.768C719.661 662.56 719.782 662.439 721.021 662.258C719.813 662.107 719.692 661.986 719.51 660.748C719.359 661.956 719.238 662.077 717.999 662.258C719.208 662.409 719.329 662.56 719.51 663.768Z" fill="white" fill-opacity="0.1"/>
<path d="M805.3 775.957C805.451 777.165 805.572 777.286 806.811 777.467C805.603 777.618 805.482 777.739 805.3 778.977C805.149 777.769 805.028 777.648 803.789 777.467C804.998 777.316 805.119 777.165 805.3 775.957Z" fill="white" fill-opacity="0.1"/>
<path d="M709.061 784.294C709.212 785.502 709.333 785.623 710.572 785.804C709.363 785.956 709.242 786.076 709.061 787.315C708.91 786.107 708.789 785.986 707.55 785.804C708.759 785.654 708.879 785.502 709.061 784.294Z" fill="white" fill-opacity="0.1"/>
<path d="M509.764 718C509.915 719.208 510.036 719.329 511.275 719.51C510.066 719.661 509.945 719.782 509.764 721.021C509.613 719.812 509.492 719.692 508.253 719.51C509.462 719.359 509.583 719.208 509.764 718Z" fill="white" fill-opacity="0.1"/>
<path d="M486.059 818.251C486.059 817.634 486.559 817.134 487.177 817.134C487.795 817.134 488.295 817.634 488.295 818.251C488.295 818.869 487.795 819.369 487.177 819.369C486.559 819.369 486.059 818.869 486.059 818.251Z" fill="white" fill-opacity="0.1"/>
<path d="M742.771 893.712C742.771 893.094 743.272 892.594 743.89 892.594C744.507 892.594 745.008 893.094 745.008 893.712C745.008 894.329 744.507 894.829 743.89 894.829C743.272 894.829 742.771 894.329 742.771 893.712Z" fill="white" fill-opacity="0.1"/>
<path d="M769.404 850.433C769.404 849.816 769.905 849.315 770.523 849.315C771.14 849.315 771.641 849.816 771.641 850.433C771.641 851.05 771.14 851.551 770.523 851.551C769.905 851.551 769.404 851.05 769.404 850.433Z" fill="white" fill-opacity="0.1"/>
<path d="M734.616 761.185C734.616 760.568 735.116 760.068 735.734 760.068C736.351 760.068 736.852 760.568 736.852 761.185C736.852 761.803 736.351 762.303 735.734 762.303C735.116 762.303 734.616 761.803 734.616 761.185Z" fill="white" fill-opacity="0.1"/>
<path d="M714.597 869.668C714.597 869.051 715.097 868.55 715.715 868.55C716.333 868.55 716.833 869.051 716.833 869.668C716.833 870.285 716.333 870.785 715.715 870.785C715.097 870.785 714.597 870.285 714.597 869.668Z" fill="white" fill-opacity="0.1"/>
<path d="M730.273 826.183C731.28 825.737 732.458 826.192 732.904 827.199C733.35 828.205 732.895 829.383 731.887 829.828C730.88 830.274 729.702 829.819 729.256 828.812C728.81 827.806 729.266 826.628 730.273 826.183Z" fill="white" fill-opacity="0.15"/>
<path d="M583.569 831.728C583.569 830.627 584.462 829.735 585.563 829.735C586.665 829.735 587.558 830.627 587.558 831.728C587.558 832.829 586.665 833.722 585.563 833.722C584.462 833.722 583.569 832.829 583.569 831.728Z" fill="white" fill-opacity="0.15"/>
<path d="M649.708 864.695C650.487 863.917 651.75 863.917 652.529 864.695C653.308 865.474 653.308 866.736 652.529 867.514C651.75 868.293 650.487 868.293 649.708 867.514C648.93 866.736 648.93 865.474 649.708 864.695Z" fill="white" fill-opacity="0.15"/>
<path d="M587.672 762.258C587.823 763.467 587.943 763.587 589.182 763.769C587.974 763.92 587.853 764.041 587.672 765.279C587.52 764.071 587.4 763.95 586.161 763.769C587.369 763.618 587.49 763.467 587.672 762.258Z" fill="white" fill-opacity="0.1"/>
<path d="M446.511 752.031C446.662 753.239 446.782 753.36 448.021 753.541C446.813 753.692 446.692 753.813 446.511 755.052C446.359 753.843 446.239 753.723 445 753.541C446.208 753.39 446.329 753.239 446.511 752.031Z" fill="white" fill-opacity="0.1"/>
<g opacity="0.5" filter="url(#filter0_f_352_9)">
<path d="M1344.79 450C1344.79 489.875 1274.86 525.98 1161.79 552.109C1048.72 578.242 892.536 594.404 720 594.404C547.464 594.404 391.275 578.242 278.206 552.109C165.137 525.975 95.2065 489.875 95.2065 450C95.2065 410.125 165.137 374.02 278.206 347.891C391.275 321.758 547.464 305.596 720 305.596C892.536 305.596 1048.72 321.758 1161.79 347.891C1274.86 374.025 1344.79 410.125 1344.79 450Z" fill="#633BBC" fill-opacity="0.2"/>
</g>
</g>
<path d="M1439 0V900H1441V0H1439Z" fill="url(#paint0_radial_352_9)" mask="url(#path-1-inside-1_352_9)"/>
<defs>
<filter id="filter0_f_352_9" x="-293.461" y="-83.0722" width="2026.92" height="1066.14" filterUnits="userSpaceOnUse" color-interpolation-filters="sRGB">
<feFlood flood-opacity="0" result="BackgroundImageFix"/>
<feBlend mode="normal" in="SourceGraphic" in2="BackgroundImageFix" result="shape"/>
<feGaussianBlur stdDeviation="194.334" result="effect1_foregroundBlur_352_9"/>
</filter>
<radialGradient id="paint0_radial_352_9" cx="0" cy="0" r="1" gradientUnits="userSpaceOnUse" gradientTransform="translate(720 450) rotate(180) scale(1072 450)">
<stop stop-color="#727275"/>
<stop offset="1" stop-color="#2C2C31"/>
</radialGradient>
<clipPath id="clip0_352_9">
<path d="M0 0H1440V900H0V0Z" fill="white"/>
</clipPath>
</defs>
</svg>
